<?xml version="1.0" encoding="utf-8"?>
<!DOCTYPE svg PUBLIC "-//W3C//DTD SVG 1.0//EN" "http://www.w3.org/TR/2001/REC-SVG-20010904/DTD/svg10.dtd">
<svg version="1.0" xmlns="http://www.w3.org/2000/svg" width="64px" height="37px" viewBox="0 0 64 37" preserveAspectRatio="xMidYMid meet">
 <g fill="#ffffff">
  <path d="M0 18.5 l0 -18.5 32 0 32 0 0 18.5 0 18.5 -32 0 -32 0 0 -18.5z m37.5 7.9 l4.2 -4.6 7.2 0.7 7.2 0.7 -4.2 -6.6 c-2.3 -3.6 -4.4 -6.6 -4.8 -6.6 -0.3 0 -4.9 4.3 -10.1 9.5 -7.7 7.7 -9.2 9.7 -8 10.5 2.7 1.7 4.1 1.1 8.5 -3.6z m-14 -8.4 c4.9 -5 4.9 -5 2.9 -7 -2 -2 -2 -2 -8.9 5 l-6.9 7 4 0 c3.5 0 4.6 -0.6 8.9 -5z"/>
 </g>
 <g fill="#b05a49">
  <path d="M26.8 33.4 c-2.7 -1.3 -4.8 -3 -4.8 -3.7 0 -1.5 24.1 -25.7 25.6 -25.7 1.4 0 13.4 18.5 13.4 20.6 0 1.3 -1.4 1.5 -8.4 1.3 l-8.5 -0.3 -5.1 5.2 c-2.8 2.9 -5.6 5.2 -6.3 5.2 -0.7 -0.1 -3.3 -1.2 -5.9 -2.6z"/>
  <path d="M4 24.7 c0 -1.5 19.1 -20.7 20.6 -20.7 0.5 0 3 2 5.4 4.5 l4.4 4.5 -6.4 6.5 -6.4 6.5 -8.8 0 c-6.4 0 -8.8 -0.3 -8.8 -1.3z"/>
 </g>
</svg>